HIERARCHY
ROOT Hips
{
	OFFSET 0.000000 0.000000 0.000000
	CHANNELS 6 Xposition Yposition Zposition Xrotation Yrotation Zrotation
	JOINT LeftUpLeg_virtual
	{
		OFFSET 0.000000 0.000000 0.000000
		CHANNELS 3 Xrotation Yrotation Zrotation
		JOINT LeftUpLeg
		{
			OFFSET 10.205400 -3.823500 0.155100
			CHANNELS 3 Xrotation Yrotation Zrotation
			JOINT LeftLeg
			{
				OFFSET 0.708757 -12.982077 0.567790
				CHANNELS 3 Xrotation Yrotation Zrotation
				JOINT LeftFoot
				{
					OFFSET -0.708756 -10.717838 -2.184338
					CHANNELS 3 Xrotation Yrotation Zrotation
					JOINT LeftToeBase
					{
						OFFSET 0.108149 -7.191104 7.560241
						CHANNELS 3 Xrotation Yrotation Zrotation
						JOINT LeftToe_End
						{
							OFFSET 0.070230 0.081724 4.490308
							CHANNELS 3 Xrotation Yrotation Zrotation
							End Site
							{
								OFFSET 0 0 0
							}
						}
					}
				}
			}
		}
	}
	JOINT RightUpLeg_virtual
	{
		OFFSET 0.000000 0.000000 0.000000
		CHANNELS 3 Xrotation Yrotation Zrotation
		JOINT RightUpLeg
		{
			OFFSET -10.205400 -3.823500 0.005500
			CHANNELS 3 Xrotation Yrotation Zrotation
			JOINT RightLeg
			{
				OFFSET -0.708756 -12.982134 0.610632
				CHANNELS 3 Xrotation Yrotation Zrotation
				JOINT RightFoot
				{
					OFFSET 0.708754 -10.717769 -1.945823
					CHANNELS 3 Xrotation Yrotation Zrotation
					JOINT RightToeBase
					{
						OFFSET -0.108140 -7.191069 7.372968
						CHANNELS 3 Xrotation Yrotation Zrotation
						JOINT RightToe_End
						{
							OFFSET -0.070227 0.081735 4.479403
							CHANNELS 3 Xrotation Yrotation Zrotation
							End Site
							{
								OFFSET 0 0 0
							}
						}
					}
				}
			}
		}
	}
	JOINT Spine_virtual
	{
		OFFSET 0.000000 0.000000 0.000000
		CHANNELS 3 Xrotation Yrotation Zrotation
		JOINT Spine
		{
			OFFSET 0.000000 6.876099 0.125700
			CHANNELS 3 Xrotation Yrotation Zrotation
			JOINT Spine1
			{
				OFFSET 0.000000 5.730043 0.104720
				CHANNELS 3 Xrotation Yrotation Zrotation
				JOINT Spine1_split
				{
					OFFSET 0.000000 5.730043 0.104720
					CHANNELS 3 Xrotation Yrotation Zrotation
					JOINT Spine2
					{
						OFFSET 0.000000 5.730043 0.104720
						CHANNELS 3 Xrotation Yrotation Zrotation
						JOINT Neck_virtual
						{
							OFFSET 0.000000 0.000000 0.000000
							CHANNELS 3 Xrotation Yrotation Zrotation
							JOINT Neck
							{
								OFFSET 0.000000 10.314075 0.188496
								CHANNELS 3 Xrotation Yrotation Zrotation
								JOINT Head
								{
									OFFSET 0.000000 7.643700 -2.377400
									CHANNELS 3 Xrotation Yrotation Zrotation
									JOINT HeadTop_End
									{
										OFFSET 0.000000 43.788605 -13.619600
										CHANNELS 3 Xrotation Yrotation Zrotation
										End Site
										{
											OFFSET 0 0 0
										}
									}
								}
							}
						}
						JOINT LeftShoulder_virtual
						{
							OFFSET 0.000000 0.000000 0.000000
							CHANNELS 3 Xrotation Yrotation Zrotation
							JOINT LeftShoulder
							{
								OFFSET 2.196100 4.412489 0.087492
								CHANNELS 3 Xrotation Yrotation Zrotation
								JOINT LeftShoulder_split
								{
									OFFSET 2.196100 4.412489 0.087492
									CHANNELS 3 Xrotation Yrotation Zrotation
									JOINT LeftArm
									{
										OFFSET 8.771219 -2.981674 -0.026999
										CHANNELS 3 Xrotation Yrotation Zrotation
										JOINT LeftForeArm
										{
											OFFSET 8.512804 0.000000 -0.000000
											CHANNELS 3 Xrotation Yrotation Zrotation
											JOINT LeftHand
											{
												OFFSET 18.484802 0.000000 -0.000000
												CHANNELS 3 Xrotation Yrotation Zrotation
												End Site
												{
													OFFSET 0 0 0
												}
											}
										}
									}
								}
							}
						}
						JOINT RightShoulder_virtual
						{
							OFFSET 0.000000 0.000000 0.000000
							CHANNELS 3 Xrotation Yrotation Zrotation
							JOINT RightShoulder
							{
								OFFSET -2.196100 4.412496 0.070690
								CHANNELS 3 Xrotation Yrotation Zrotation
								JOINT RightShoulder_split
								{
									OFFSET -2.196100 4.412496 0.070690
									CHANNELS 3 Xrotation Yrotation Zrotation
									JOINT RightArm
									{
										OFFSET -8.771282 -2.981682 -0.094208
										CHANNELS 3 Xrotation Yrotation Zrotation
										JOINT RightForeArm
										{
											OFFSET -8.494598 0.000000 0.000000
											CHANNELS 3 Xrotation Yrotation Zrotation
											JOINT RightHand
											{
												OFFSET -18.483803 0.000000 0.000001
												CHANNELS 3 Xrotation Yrotation Zrotation
												End Site
												{
													OFFSET 0 0 0
												}
											}
										}
									}
								}
							}
						}
					}
				}
			}
		}
	}
}
MOTION
Frames: 5
Frame Time: 0.03333333
3.971238 27.242798 -1.439951 0.000000 0.000000 0.000000 24.568337 -83.455425 27.030957 -31.550802 -8.038821 24.240039 53.010795 -7.467763 14.436295 -25.302649 -2.224540 -32.165874 -1.500532 0.593831 -2.409416 0.000000 0.000000 0.000000 17.013217 -82.325322 20.741382 -8.279672 5.806946 -35.021436 44.974562 11.143054 -13.262497 -32.836083 -5.656796 31.870090 -13.042840 1.786417 0.876532 0.000000 0.000000 0.000000 23.774423 -78.480827 25.493836 1.863311 5.054809 2.560166 0.333779 3.485314 1.153323 1.440515 -0.944103 0.757042 0.000000 0.000000 0.000000 0.885928 2.964980 0.976879 -3.502845 7.438254 -1.341537 2.618159 41.465132 -5.367878 0.000000 0.000000 0.000000 1.004660 3.408977 1.113316 1.449576 11.352807 -10.354513 -3.489867 -2.026399 -2.158811 -9.900200 10.591265 -65.222856 -178.907694 -63.322575 -176.802452 0.000000 0.000000 0.000000 1.881398 3.588570 0.663166 1.348573 9.384629 9.983482 0.654489 3.333058 2.211681 -13.231170 34.503411 48.132466 -179.640191 71.039582 179.289133 0.000000 0.000000 0.000000 
3.936082 27.165047 -1.370337 0.000000 0.000000 0.000000 18.004981 -83.151515 20.196215 -32.212822 -7.412114 23.824072 53.193769 -7.813220 15.084350 -25.340034 -3.546241 -30.947806 -2.166156 0.670670 -2.499985 0.000000 0.000000 0.000000 11.857822 -80.833185 15.064423 -7.454540 4.238644 -34.298177 45.802200 9.175982 -13.114140 -33.202134 -7.500389 30.599128 -12.517668 1.966432 1.627702 0.000000 0.000000 0.000000 21.381043 -77.716515 22.607060 1.578716 5.236272 2.590846 0.264239 3.593464 1.121667 1.571443 -1.596397 0.805024 0.000000 0.000000 0.000000 0.817364 3.113550 0.936176 -2.801578 6.923710 -1.390915 2.872068 39.984887 -4.983618 0.000000 0.000000 0.000000 1.018969 3.458671 1.123125 1.303928 11.070435 -9.234810 -2.834590 -1.644116 -2.997925 -8.080120 8.135500 -65.530153 -179.521332 -62.889745 -177.348047 0.000000 0.000000 0.000000 1.596140 3.686670 0.677630 1.354373 8.878034 9.168665 0.455367 3.975731 2.253946 -12.335274 33.134641 48.103875 -178.767771 69.770929 178.352085 0.000000 0.000000 0.000000 
3.906751 28.029888 -1.410748 0.000000 0.000000 0.000000 10.569697 -80.322710 12.460224 -31.628803 -6.090352 22.430871 48.441505 -9.475852 14.830409 -21.802700 -6.477845 -30.911735 -2.468766 0.634460 -2.347407 0.000000 0.000000 0.000000 8.464408 -77.654907 11.303123 -7.143184 2.458958 -32.846298 44.966759 7.528611 -12.627921 -27.436525 -7.645887 30.020754 -17.191835 1.343642 3.385744 0.000000 0.000000 0.000000 17.093083 -75.718739 17.969210 1.139066 5.180041 2.566926 0.068792 3.617014 0.995842 1.387785 -2.316629 0.750391 0.000000 0.000000 0.000000 0.737917 3.153752 0.813737 -2.007630 6.479860 -1.429278 3.051633 37.810254 -4.175194 0.000000 0.000000 0.000000 0.900130 3.426384 1.023869 1.126279 10.276770 -7.801408 -1.809889 -1.057474 -3.458057 -6.303046 4.255991 -64.041486 -179.949229 -62.263827 -177.878480 0.000000 0.000000 0.000000 1.236888 3.640375 0.602296 1.301117 8.333242 8.260095 0.142578 4.407840 2.121584 -10.778549 30.621521 47.515533 -178.456492 67.446759 177.981616 0.000000 0.000000 0.000000 
3.896094 29.602568 -1.515003 0.000000 0.000000 0.000000 6.805091 -75.421462 8.464367 -29.598027 -4.086265 20.497560 39.838707 -11.602039 13.217311 -15.138691 -10.276205 -31.186312 -2.343074 0.488424 -1.910833 0.000000 0.000000 0.000000 6.428470 -73.395471 9.118721 -7.431289 0.867475 -31.023068 43.122850 6.720142 -11.942688 -17.412970 -6.116128 30.431980 -24.772133 -0.242560 5.434539 0.000000 0.000000 0.000000 12.696258 -72.521350 13.555545 0.708817 4.914043 2.475723 -0.158131 3.553771 0.832937 0.990407 -2.552303 0.712303 0.000000 0.000000 0.000000 0.620964 3.089018 0.665748 -1.297814 6.128029 -1.547730 3.085450 35.159048 -3.125537 0.000000 0.000000 0.000000 0.678551 3.326160 0.875755 0.987657 9.076346 -6.454870 -0.767277 -0.475183 -3.591524 -4.808474 -0.367007 -61.287581 179.903153 -61.684449 -178.210509 0.000000 0.000000 0.000000 0.915056 3.485193 0.467666 1.192854 7.817837 7.359300 -0.345837 4.509140 1.814939 -8.718444 27.284953 46.208491 -178.628558 65.097420 178.087907 0.000000 0.000000 0.000000 
3.865652 31.486416 -1.721224 0.000000 0.000000 0.000000 5.449052 -69.717558 6.940574 -26.499631 -1.383733 18.474827 30.061585 -12.459775 10.514626 -7.581754 -13.049344 -29.902995 -1.560111 0.267953 -1.555327 0.000000 0.000000 0.000000 4.988452 -68.324479 7.807670 -8.065614 -0.724943 -28.808505 40.656595 6.075633 -11.154946 -7.607664 -3.798794 30.275305 -30.533770 -2.275218 6.934170 0.000000 0.000000 0.000000 8.943506 -68.452074 10.134256 0.452442 4.459526 2.329545 -0.280904 3.407774 0.681422 0.552648 -2.297108 0.712828 0.000000 0.000000 0.000000 0.465723 2.926962 0.538146 -0.862339 5.823378 -1.785399 2.958058 32.359602 -2.058453 0.000000 0.000000 0.000000 0.477823 3.162424 0.722214 0.957704 7.601904 -5.672882 -0.159609 -0.124694 -3.401597 -3.653662 -4.997018 -58.070924 -179.981140 -61.389112 -178.371497 0.000000 0.000000 0.000000 0.744119 3.279916 0.350755 1.059725 7.467965 6.597507 -0.757176 4.405516 1.279682 -6.616849 23.559056 44.447524 -179.066851 63.567799 178.478539 0.000000 0.000000 0.000000 
